<?xml version="1.0" encoding="utf-8"?>
<!-- Generator: Adobe Illustrator 14.0.0, SVG Export Plug-In . SVG Version: 6.00 Build 43363)  -->
<!DOCTYPE svg PUBLIC "-//W3C//DTD SVG 1.1//EN" "http://www.w3.org/Graphics/SVG/1.1/DTD/svg11.dtd">
<svg version="1.1" id="logo" xmlns="http://www.w3.org/2000/svg" xmlns:xlink="http://www.w3.org/1999/xlink" x="0px" y="0px"
	 width="600px" height="320px" viewBox="0 0 600 320" enable-background="new 0 0 600 320" xml:space="preserve">
<g id="PHOTOGRAPHY">
	<path id="P" fill="#FFFFFF" d="M0,263.529h23.792c15.433,0,22.23,7.168,22.23,19.484c0,12.038-6.246,19.391-22.321,19.391H7.717
		v17.646H0V263.529z M22.69,295.695c11.114,0,15.34-2.758,15.34-12.223c0-9.467-3.398-13.234-15.34-13.234H7.717v25.457H22.69
		L22.69,295.695z"/>
	<path id="H" fill="#FFFFFF" d="M55.115,263.529h7.716v24.354H92.41v-24.354h7.716v56.521H92.41v-25.917H62.831v25.917h-7.716
		V263.529z"/>
	<path id="O" fill="#FFFFFF" d="M109.77,292.02c0-22.148,12.309-29.226,27.282-29.226c14.973,0,27.098,7.077,27.098,29.226
		c0,22.057-12.217,28.766-27.19,28.766S109.77,314.076,109.77,292.02z M156.157,292.203c0-18.014-7.165-22.7-19.198-22.7
		s-19.198,4.687-19.198,22.7c0,17.646,7.532,22.057,19.291,22.057C148.625,314.259,156.157,309.848,156.157,292.203z"/>
	<path id="T" fill="#FFFFFF" d="M184.813,270.238h-18.648v-6.709h45.011v6.709h-18.647v49.812h-7.716V270.238z"/>
	<path id="O_1_" fill="#FFFFFF" d="M213.193,292.02c0-22.148,12.309-29.226,27.282-29.226s27.098,7.077,27.098,29.226
		c0,22.057-12.217,28.766-27.189,28.766C225.412,320.785,213.193,314.076,213.193,292.02z M259.582,292.203
		c0-18.014-7.165-22.7-19.198-22.7c-12.034,0-19.199,4.687-19.199,22.7c0,17.646,7.533,22.057,19.29,22.057
		C252.05,314.259,259.582,309.848,259.582,292.203z"/>
	<path id="G" fill="#FFFFFF" d="M274.002,291.835c0-18.289,10.197-28.306,24.894-28.306h20.483v6.709h-19.841
		c-12.86,0-17.729,8.087-17.729,21.597c0,13.511,4.869,21.505,17.729,21.505h14.881v-17.277h-15.892v-6.25h23.607v30.235h-23.24
		C284.199,320.049,274.002,310.032,274.002,291.835z"/>
	<path id="R" fill="#FFFFFF" d="M369.9,304.609l9.738,15.439h-8.729l-9.186-14.613c-3.308-5.238-4.686-6.707-9.555-6.707h-11.574
		v21.321h-7.716v-56.521h24.894c13.963,0,20.393,5.974,20.393,17.186c0,10.293-4.96,15.439-13.87,17.37
		C366.316,299.279,367.695,301.025,369.9,304.609z M356.673,292.02c9.278,0,13.503-1.655,13.503-10.845
		c0-8.271-3.398-10.937-13.503-10.937h-16.075v21.781H356.673z"/>
	<path id="A" fill="#FFFFFF" d="M391.578,320.049h-7.9l22.689-56.521h7.717l21.861,56.521h-8.176l-5.879-15.439h-24.158
		L391.578,320.049z M414.267,284.574c-2.204-5.881-4.225-13.143-4.225-13.143s-2.021,7.262-4.41,13.143l-5.419,13.787h19.289
		L414.267,284.574z"/>
	<path id="P_1_" fill="#FFFFFF" d="M443.751,263.529h23.792c15.432,0,22.229,7.168,22.229,19.484
		c0,12.038-6.245,19.391-22.321,19.391h-15.982v17.646h-7.717L443.751,263.529L443.751,263.529z M466.441,295.695
		c11.112,0,15.339-2.758,15.339-12.223c0-9.467-3.397-13.234-15.339-13.234h-14.975v25.457H466.441L466.441,295.695z"/>
	<path id="H_1_" fill="#FFFFFF" d="M498.865,263.529h7.717v24.354h29.578v-24.354h7.715v56.521h-7.715v-25.917h-29.578v25.917
		h-7.717V263.529L498.865,263.529z"/>
	<path id="Y" fill="#FFFFFF" d="M551.592,263.529h8.45l13.503,24.078c0.919,1.654,2.48,4.412,2.48,4.412s1.561-2.756,2.479-4.412
		l13.502-24.078H600l-20.209,35.291v21.229h-7.624v-20.587L551.592,263.529z"/>
</g>
<g id="Niki_Ross">
	<g id="Niki_1_">
		<path id="N" fill="#FFFFFF" d="M101.708,12.055c0.969-4.208,2.908-9.063,9.37-11.653c1.616-0.647,1.938,0.647,1.938,1.619
			c-7.108,49.202-8.077,175.12,1.292,234.679c0.323,2.266,0.323,3.237-2.262,4.208c-4.847,1.941-10.985,2.912-16.801-3.885
			C62.289,197.855,28.041,111.105,14.147,47.014c-3.231,55.676-1.938,146.31,6.462,192.599c0.323,1.941-0.324,2.265-2.585,1.941
			c-5.492-0.646-10.985-3.885-12.924-15.537C-2.654,177.786-1.039,59.637,6.393,23.06c0.969-4.208,1.938-9.388,9.37-12.625
			c2.584-1.294,3.877,0,4.2,2.266c13.57,70.889,45.234,159.904,79.161,210.726C90.399,169.047,94.277,47.985,101.708,12.055z"/>
		<path id="i" fill="#FFFFFF" d="M167.654,192.677c0.323,22.659-11.309,38.519-24.879,33.665
			c-13.248-4.855-17.448-18.127-17.771-38.521c-0.323-15.536,2.262-31.397,5.169-40.137c1.616-5.18,5.493-7.769,8.401-8.417
			c1.615-0.324,2.585,0,2.262,1.295c-7.754,38.196-3.231,75.746,3.554,78.009c5.816,1.943,16.155-11.651,19.709-32.691
			c0.323-1.295,1.292-1.619,1.939-0.324S167.654,188.792,167.654,192.677z M139.544,116.285c2.908-0.324,6.462,1.942,7.108,6.797
			c0.646,6.15-3.554,11.006-8.077,11.653c-4.846,0.647-8.078-2.266-7.432-7.769C131.79,122.111,135.345,116.933,139.544,116.285z"/>
		<path id="k" fill="#FFFFFF" d="M191.268,126.319c5.816-6.15,15.833-10.034,25.525,0.971c14.54,16.508,9.37,49.201-18.417,63.12
			c2.262,15.861,8.401,27.514,14.54,29.456c8.724,2.913,22.617-9.386,28.433-34.312c0.323-1.619,1.615-1.619,2.262-0.646
			c0.969,1.617,1.616,4.208,1.292,8.416c-0.969,23.63-13.894,38.195-32.634,34.635c-13.894-2.589-25.202-16.832-27.787-37.873
			c-0.323-1.941,0.323-3.884,2.585-5.502c25.202-12.948,31.018-43.052,23.91-51.792c-10.339-12.624-41.034,32.692-31.018,96.461
			c0.323,1.94-0.646,2.589-2.909,2.265c-4.846-1.94-10.662-5.178-11.954-17.154c-5.493-52.762-1.616-122.033,7.108-162.171
			c0.97-5.179,3.554-10.358,9.047-12.624c1.938-0.324,2.262,0.647,1.938,1.942c-4.523,30.751-8.724,78.011-8.401,122.68
			C178.343,143.799,186.098,131.822,191.268,126.319z"/>
		<path id="i_1_" fill="#FFFFFF" d="M280.148,192.677c0.323,22.659-11.309,38.519-24.879,33.665
			c-13.247-4.855-17.448-18.127-17.77-38.521c-0.323-15.536,2.261-31.397,5.169-40.137c1.616-5.18,5.493-7.769,8.401-8.417
			c1.615-0.324,2.584,0,2.261,1.295c-7.754,38.196-3.231,75.746,3.555,78.009c5.815,1.943,16.155-11.651,19.709-32.691
			c0.323-1.295,1.292-1.619,1.939-0.324C279.179,186.85,280.148,188.792,280.148,192.677z M252.038,116.285
			c2.908-0.324,6.462,1.942,7.108,6.797c0.646,6.15-3.554,11.006-8.077,11.653c-4.847,0.647-8.078-2.266-7.431-7.769
			C244.284,122.111,247.838,116.933,252.038,116.285z"/>
	</g>
	<g id="Ross">
		<path id="R_1_" fill="#FFFFFF" d="M334.695,240.261c0.322,1.941-0.646,2.265-2.909,1.941c-5.813-0.97-12.601-2.913-14.216-15.537
			c-6.461-50.819-2.908-150.195,5.492-188.715c0.97-4.855,2.908-10.682,9.369-12.948c1.939-0.647,2.262,0.324,1.939,1.619
			c-3.877,25.896-6.141,71.536-5.816,117.501c67.206,2.59,110.824-26.219,109.21-62.473c-1.615-39.491-47.174-65.062-93.376-66.357
			c-44.913-1.295-75.285,15.538-82.392,34.959c-8.078,22.012,9.692,42.728,41.68,48.878c2.908,0.647,3.231,1.942,0.97,3.237
			c-4.523,2.589-11.31,3.561-21.972,1.294c-25.202-5.179-41.357-27.838-28.433-59.236c9.047-22.011,38.773-46.936,93.053-44.023
			c61.068,3.237,101.131,39.491,100.163,82.542c-0.97,43.699-44.266,72.508-109.532,73.479c27.465,27.514,62.682,56,83.038,68.301
			c0.97,0.646,1.616,1.941,0,2.59c-6.463,3.235-10.984,1.293-15.509-0.972c-18.096-8.741-47.82-30.428-76.576-57.942
			C329.848,194.943,331.463,220.191,334.695,240.261z"/>
		<path id="o" fill="#FFFFFF" d="M443.276,223.752c-14.218-4.855-25.526-20.393-21.973-50.497
			c2.263-17.803,11.631-35.93,20.681-40.785c1.938-0.971,5.49-1.295,8.723,2.589c8.4-1.618,19.062,9.387,22.94,29.78
			c1.614-1.295,3.23-2.266,4.523-3.56c1.615-1.619,2.261-0.972,2.261,0.324c0,3.235-1.938,7.769-5.491,11.328
			C478.172,210.48,462.016,230.227,443.276,223.752z M441.015,153.833c-3.23,6.798-5.492,15.86-6.463,26.219
			c-2.262,24.601,7.434,36.901,11.955,37.872c8.726,1.942,17.771-15.859,17.125-40.785
			C449.738,177.463,441.984,165.486,441.015,153.833z M462.985,167.105c-1.616-13.919-6.14-25.25-11.633-25.896
			C445.215,140.562,449.415,165.163,462.985,167.105z"/>
		<path id="s_1_" fill="#FFFFFF" d="M487.213,208.214c-1.615,1.295-1.615,1.619-2.262-0.323c-0.97-3.238,0.646-6.799,1.938-11.33
			c-0.321-2.266-0.968-4.531-1.614-6.797c-0.97-4.207-1.615-11.33,1.614-14.891c0.972-0.971,1.616-1.295,1.939,0.324
			c0.323,2.265,0.97,4.531,1.292,6.474c3.23-16.833,9.692-44.994,23.265-57.618c5.169-4.855,10.339-2.589,13.569,0.971
			c1.615,1.619,0.646,3.237-0.646,4.208c-9.692,8.739-1.293,33.34,5.492,48.877c10.339,23.953,6.785,35.93,0,42.404
			c-12.276,11.328-31.019,9.063-42.003-15.861C489.151,206.271,488.182,207.243,487.213,208.214z M526.309,215.335
			c4.847-5.502-1.938-20.069-7.432-32.692c-4.848-11.006-10.662-26.868-7.755-39.167c-8.077,12.948-12.277,33.017-16.479,50.498
			C504.338,214.364,521.139,221.162,526.309,215.335z"/>
		<path id="s" fill="#FFFFFF" d="M548.922,208.214c-1.615,1.295-1.615,1.619-2.262-0.323c-0.97-3.238,0.646-6.799,1.938-11.33
			c-0.323-2.266-0.971-4.531-1.615-6.797c-0.97-4.207-1.615-11.33,1.615-14.891c0.97-0.971,1.615-1.295,1.938,0.324
			c0.322,2.265,0.969,4.531,1.293,6.474c3.229-16.833,9.692-44.994,23.263-57.618c5.17-4.855,10.34-2.589,13.57,0.971
			c1.616,1.619,0.646,3.237-0.646,4.208c-9.691,8.739-1.293,33.34,5.494,48.877c10.338,23.953,6.784,35.93,0,42.404
			c-12.277,11.328-31.019,9.063-42.005-15.861C550.86,206.271,549.892,207.243,548.922,208.214z M588.018,215.335
			c4.849-5.502-1.938-20.069-7.431-32.692c-4.847-11.006-10.662-26.868-7.756-39.167c-8.077,12.948-12.277,33.017-16.479,50.498
			C566.047,214.364,582.848,221.162,588.018,215.335z"/>
	</g>
</g>
</svg>
